<svg version="1.1" id="Layer_1" xmlns="http://www.w3.org/2000/svg" xmlns:xlink="http://www.w3.org/1999/xlink" x="0px" y="0px"
	 width="100%" viewBox="0 0 528 528" enable-background="new 0 0 528 528" xml:space="preserve">
<path fill="#32CD32" opacity="1.000000" stroke="none" 
	d="
M356.287720,208.171387 
	C361.834503,212.322205 363.562439,218.735458 367.292358,223.783447 
	C369.065552,226.183273 370.427673,228.887833 371.963043,231.462082 
	C372.942474,233.104187 373.466827,234.797287 372.524719,236.662384 
	C368.504852,244.621063 368.971405,252.694504 371.645111,260.943817 
	C372.609589,263.919586 370.405914,266.317963 368.984314,268.660278 
	C366.842560,272.189178 364.720795,275.469482 368.060638,279.508575 
	C369.787201,281.596588 367.629913,283.195557 366.719391,284.837372 
	C365.645203,286.774292 364.111053,286.469086 362.464233,285.501953 
	C361.487610,284.928406 360.465515,284.202362 359.218262,284.876251 
	C358.366455,290.979431 364.655365,297.545288 371.340515,297.320007 
	C373.853668,303.264221 370.388214,307.585541 367.258026,311.957825 
	C365.815430,313.972900 365.806305,316.358582 365.182190,318.458252 
	C363.611694,323.741486 363.023529,329.745544 359.117920,334.055634 
	C356.802246,336.611176 353.351715,337.115875 350.475159,334.842255 
	C345.140594,330.625793 337.863800,328.654724 335.235413,321.209503 
	C334.216339,318.322876 330.458038,318.514679 328.155090,316.890381 
	C319.688751,310.918976 309.562042,308.336182 300.519806,303.750244 
	C290.957642,298.900604 279.929291,296.177734 272.438049,287.428497 
	C268.281403,282.573822 262.019958,279.822662 258.532379,274.145386 
	C256.537750,270.898407 253.085907,268.192413 256.348602,263.702118 
	C257.392609,262.265320 257.084839,259.997040 255.670090,258.563446 
	C249.869888,252.685974 247.623459,243.793396 239.681488,239.736832 
	C239.267059,239.525162 238.655243,238.990067 238.700897,238.692245 
	C239.633072,232.611023 233.489258,230.614243 231.756866,226.700989 
	C228.060654,218.351822 221.354858,212.160324 217.765793,203.855042 
	C213.835800,194.760864 209.112930,185.678329 202.531174,178.445984 
	C197.703842,173.141479 193.690155,167.401764 189.268982,161.884186 
	C185.897934,157.677155 181.545380,154.586517 176.192062,153.131836 
	C172.624039,152.162277 169.305939,150.513504 166.308746,148.425095 
	C163.594574,146.533905 161.817429,144.264801 165.842102,141.518326 
	C168.500336,139.704315 166.527283,137.913589 164.980438,136.832443 
	C162.546509,135.131271 160.274719,133.679474 161.248962,130.078018 
	C161.435425,129.388748 160.537827,128.292801 159.953552,127.527008 
	C156.314240,122.757111 156.258408,120.059822 159.767822,115.099640 
	C162.261978,111.574402 164.237991,107.634415 167.596237,104.796524 
	C169.347946,103.316231 171.138641,99.882072 173.645050,102.332207 
	C175.864456,104.501762 177.398178,107.914444 175.342529,111.415733 
	C174.785858,112.363922 173.489014,112.996376 174.277222,114.806320 
	C176.257187,115.145744 178.465179,115.526207 180.673889,115.902466 
	C184.899658,116.622314 188.969070,117.086281 191.126465,121.987335 
	C192.187378,124.397469 194.723770,124.244469 196.615936,121.524254 
	C200.453140,116.007790 201.224442,109.482841 202.586624,103.278442 
	C204.189774,95.976425 208.599228,91.201393 214.533340,87.755882 
	C222.542816,83.105385 231.767548,80.391563 237.856384,72.789917 
	C241.654556,68.048042 245.380936,63.570274 247.300934,57.291405 
	C249.413055,50.384140 249.808853,45.048149 242.578644,40.820522 
	C254.974731,36.350689 260.991150,38.406918 268.003815,48.637062 
	C270.048340,51.619629 273.752167,51.688370 276.523743,53.407692 
	C277.339691,53.913857 279.049072,53.820854 279.233582,54.374302 
	C281.169434,60.181347 289.681549,60.970898 289.680847,68.166641 
	C289.680664,69.887779 290.989380,70.624588 292.304626,70.631500 
	C297.866180,70.660706 303.690979,72.058548 308.586273,67.950737 
	C309.220795,67.418282 310.112823,66.422195 310.577911,66.575325 
	C316.421722,68.499367 322.502411,65.345360 328.190491,67.295128 
	C331.608643,68.466812 335.135193,69.481552 338.345032,71.393227 
	C341.014465,72.983047 341.266479,74.445908 339.843231,77.028397 
	C337.474518,81.326447 334.518372,85.377449 332.768768,91.264389 
	C338.149841,90.212608 340.407379,93.628975 342.999695,96.513107 
	C343.807129,97.411461 344.393555,98.435387 343.731018,99.676140 
	C343.084839,100.886246 341.562317,101.463203 340.756317,100.948982 
	C333.421082,96.269211 328.172119,103.199089 321.887909,104.092453 
	C312.761505,105.389862 306.509705,111.431740 299.666260,116.583870 
	C299.274994,116.878426 298.652069,117.250969 298.639252,117.605339 
	C298.404755,124.106468 292.902130,129.698013 295.371735,136.663849 
	C296.364746,139.464767 294.806366,140.892059 292.522583,142.196136 
	C288.814484,144.313522 285.323364,146.706528 287.182220,151.995789 
	C287.662842,153.363388 286.859192,154.564056 286.066071,155.678848 
	C285.314575,156.735168 285.284760,157.782684 286.093628,158.892502 
	C290.645203,165.137238 293.665253,172.522522 300.055695,177.400238 
	C302.789886,179.487213 303.013519,182.388809 301.969910,185.362717 
	C304.214264,187.207901 306.669128,186.566040 308.918396,186.747330 
	C311.303162,186.939545 312.919128,187.913513 314.152222,189.974533 
	C317.413239,195.424988 324.503876,196.638916 329.552185,192.501480 
	C332.245758,190.293900 334.590271,187.662735 337.122528,185.254501 
	C337.855652,184.557281 338.714600,184.036072 340.025482,184.438034 
	C341.576416,186.116379 341.495239,188.416901 340.942505,190.387039 
	C339.432983,195.767441 341.105530,200.997620 341.367554,206.270248 
	C341.551727,209.975815 344.486420,211.329742 347.746765,209.323242 
	C350.418762,207.678848 353.053192,207.645340 356.287720,208.171387 
z"/>
<path fill="#32CD32" opacity="1.000000" stroke="none" 
	d="
M264.356476,420.408020 
	C264.643524,415.473206 265.156433,411.009308 266.491241,406.697968 
	C271.750977,389.709473 287.397278,380.452271 307.398590,382.123413 
	C333.763794,384.326324 343.658630,402.258392 342.722900,425.095520 
	C342.189697,438.108978 337.413788,448.918365 326.407135,456.843384 
	C330.591705,460.297638 335.012329,459.758270 339.230072,459.997223 
	C345.423676,460.348175 346.069733,461.000366 344.397125,466.880615 
	C342.970734,471.895355 342.904480,479.144775 337.628265,480.502625 
	C330.431854,482.354675 322.788300,479.964203 316.367615,475.514618 
	C313.189514,473.312134 310.420807,470.535583 308.864960,466.970123 
	C307.219849,463.200195 304.566498,462.286377 300.649048,462.006256 
	C285.289276,460.908112 272.971558,454.831940 267.224152,439.441315 
	C265.002380,433.491760 263.882904,427.261749 264.356476,420.408020 
M289.190063,411.867706 
	C288.887665,417.318787 287.969879,422.721649 289.220123,428.227264 
	C291.729370,439.277100 301.918518,445.277466 312.737213,441.895752 
	C314.579254,441.319946 316.226624,440.648712 316.773315,438.633728 
	C319.438934,428.808685 320.419006,418.942505 315.829010,409.442017 
	C312.816895,403.207397 305.561707,400.978699 296.154358,402.134033 
	C290.529755,402.824829 290.083801,406.915466 289.190063,411.867706 
z"/>
<path fill="#32CD32" opacity="1.000000" stroke="none" 
	d="
M185.890442,394.348083 
	C189.898071,401.403442 190.100113,408.721375 189.074905,416.051575 
	C187.526459,427.122986 178.454681,434.762634 165.584305,436.260162 
	C162.281357,436.644501 158.962357,436.984650 155.642242,437.099457 
	C152.714294,437.200745 151.392548,438.538055 151.397324,441.405304 
	C151.405075,446.068237 151.278732,450.733307 151.385513,455.393433 
	C151.454300,458.395050 150.406311,460.194153 147.233673,460.392700 
	C146.572876,460.434082 145.920670,460.610016 145.264053,460.721252 
	C130.844727,463.164429 129.045319,461.709991 128.965027,447.562744 
	C128.860138,429.083740 128.991257,410.596130 127.790459,392.145599 
	C127.499008,387.667450 128.956116,385.413055 133.516678,384.699280 
	C146.557648,382.658173 159.574265,380.998718 172.595993,384.612640 
	C178.072372,386.132507 182.527161,389.219574 185.890442,394.348083 
M156.402084,402.176788 
	C153.603928,401.988556 151.331085,402.459534 151.401489,406.024933 
	C151.454086,408.688416 151.389740,411.355804 151.506363,414.015808 
	C151.564987,415.353241 151.860779,417.022858 153.262070,417.357788 
	C156.672653,418.172974 160.418869,418.785645 163.397354,416.644867 
	C166.306808,414.553711 166.002182,411.169250 165.091965,407.938416 
	C163.961792,403.926819 161.027985,402.508698 156.402084,402.176788 
z"/>
<path fill="#32CD32" opacity="1.000000" stroke="none" 
	d="
M218.000031,350.785797 
	C261.472412,350.897461 304.449158,350.680695 347.415436,351.251709 
	C370.896942,351.563751 394.375488,351.487061 417.854218,351.723053 
	C420.732727,351.751984 423.739227,351.439728 423.843811,355.734955 
	C423.955750,360.331543 420.787109,360.132416 417.708588,360.126770 
	C376.735046,360.051971 335.755371,360.390442 294.789368,359.793121 
	C234.499435,358.914124 174.208832,359.488007 113.920937,358.977325 
	C111.568909,358.957428 108.716042,359.860535 107.387321,356.755920 
	C105.796715,353.039246 107.930183,350.144226 112.589012,350.110565 
	C125.413361,350.017914 138.252365,349.724731 151.061066,350.188477 
	C173.208221,350.990387 195.355179,350.512299 218.000031,350.785797 
z"/>
<path fill="#32CD32" opacity="1.000000" stroke="none" 
	d="
M238.197342,412.125305 
	C238.193619,426.269592 238.059860,439.935150 238.260452,453.595795 
	C238.327377,458.154022 236.649353,460.088989 232.131653,460.823029 
	C217.568008,463.189392 215.946304,462.023621 215.833633,447.714630 
	C215.737854,435.551086 215.706894,423.386780 215.556732,411.223938 
	C215.473343,404.468933 214.469620,403.544586 207.622864,403.412994 
	C204.457916,403.352173 201.280182,403.218994 198.128128,403.424103 
	C194.653275,403.650238 193.294403,401.912689 193.042770,398.784454 
	C193.016068,398.452454 192.974655,398.121613 192.941177,397.790161 
	C191.628174,384.789062 192.502731,383.818939 205.366898,383.831055 
	C221.196716,383.845947 237.026627,383.817108 252.856400,383.849792 
	C259.510864,383.863525 260.062561,384.436310 260.239014,390.840088 
	C260.585480,403.414764 260.585480,403.414764 247.885956,403.389709 
	C247.386063,403.388702 246.886185,403.386993 246.386292,403.386993 
	C238.265060,403.386963 238.265060,403.387024 238.197342,412.125305 
z"/>
<path fill="#32CD32" opacity="1.000000" stroke="none" 
	d="
M402.475952,440.130127 
	C406.054901,440.617584 406.117950,443.016998 406.345154,445.407196 
	C407.706818,459.733276 407.379242,460.103088 393.297333,460.058136 
	C381.307404,460.019867 369.315857,459.900726 357.328094,460.054413 
	C353.041656,460.109344 351.557404,458.635071 351.585175,454.232910 
	C351.713196,433.922516 351.163879,413.616150 350.019470,393.337891 
	C349.745239,388.478882 351.232605,385.909485 356.142059,384.959320 
	C360.252716,384.163757 364.335266,383.729279 368.505585,383.544128 
	C372.653961,383.359955 374.146729,385.136871 374.118042,389.133209 
	C374.020050,402.787903 374.037567,416.444000 374.100891,430.099152 
	C374.150299,440.757446 372.868195,440.017944 384.047699,440.063385 
	C390.042511,440.087738 396.037445,440.077881 402.475952,440.130127 
z"/>
</svg>